<svg xmlns="http://www.w3.org/2000/svg" xmlns:xlink="http://www.w3.org/1999/xlink" viewBox="0 0 580.43 542.6"><defs><style>.cls-1{fill:none;}.cls-2{clip-path:url(#clip-path);}.cls-3{fill:#231f20;}</style><clipPath id="clip-path" transform="translate(0 0)"><rect class="cls-1" width="580.43" height="542.6"/></clipPath></defs><title>Blogs</title><g id="Layer_2" data-name="Layer 2"><g id="Layer_1-2" data-name="Layer 1"><g class="cls-2"><path class="cls-3" d="M337,408.33c-15,1.45-30.73,2.18-46.75,2.18-51.2,0-97.18-7.36-136.65-21.86a9,9,0,0,0-7.57.63L32,454.45l51.63-95.32a9,9,0,0,0-2.13-11.19C39.94,313.18,18,266.95,18,214.26c0-54.34,24.44-103.36,68.82-138C135.55,38.13,205.88,18,290.22,18S444.88,38.13,493.61,76.21c44.38,34.68,68.82,83.71,68.82,138,0,55.9-25.72,105.91-72.44,140.81a9,9,0,0,0,10.77,14.42c51.37-38.38,79.66-93.51,79.66-155.23,0-60-26.9-114.06-75.74-152.23C452.77,21.45,378.61,0,290.22,0S127.66,21.45,75.74,62C26.9,100.2,0,154.26,0,214.26A188,188,0,0,0,17.75,295a194,194,0,0,0,46.57,61.9L1.09,473.65a9,9,0,0,0,12.38,12.1L151.32,407c40.55,14.29,87.26,21.54,138.89,21.54,16.59,0,32.9-.76,48.48-2.27A9,9,0,1,0,337,408.33" transform="translate(0 0)"/><path class="cls-3" d="M146.11,215.44a28,28,0,1,0,28-28,28,28,0,0,0-28,28" transform="translate(0 0)"/><path class="cls-3" d="M262.2,215.44a28,28,0,1,0,28-28,28,28,0,0,0-28,28" transform="translate(0 0)"/><path class="cls-3" d="M378.29,215.44a28,28,0,1,0,28-28,28,28,0,0,0-28,28" transform="translate(0 0)"/><path class="cls-3" d="M550.49,466h0L380.75,311.41a8,8,0,0,0-3.18-2.29l-78.45-30.91a8,8,0,0,0-10.07,11.06l38.11,75.21.1.18c.1.18.2.35.3.52l.18.27c.12.16.24.32.37.48l.18.22a8,8,0,0,0,.59.6l0,0L499.42,522l17.74,16.15a17,17,0,0,0,24-1.13l28.15-30.92a17,17,0,0,0-1.13-24ZM360.92,319.76,336.2,346.91l-23.36-46.09Zm14.2,8.17L533.79,472.38l-29.52,32.42L345.6,360.35ZM557.51,495.35l-28.15,30.92a1,1,0,0,1-1.43.07L516.1,515.58l29.52-32.42,11.82,10.76a1,1,0,0,1,.07,1.43" transform="translate(0 0)"/></g></g></g></svg>