<svg xmlns="http://www.w3.org/2000/svg" xmlns:xlink="http://www.w3.org/1999/xlink" viewBox="0 0 119.06 123.1"><defs><style>.cls-1{fill:none;}.cls-2{clip-path:url(#clip-path);}.cls-3{fill:#343433;}</style><clipPath id="clip-path"><rect class="cls-1" width="119.06" height="123.1"/></clipPath></defs><title>doubts</title><g id="Layer_2" data-name="Layer 2"><g id="Layer_1-2" data-name="Layer 1"><g class="cls-2"><path class="cls-3" d="M115,17.15A31.8,31.8,0,0,0,59,47.24l.62,1.19-1,.89c-.21.19-.48.39-.84.65L53,53.61a1.9,1.9,0,0,0-.89,1.91c.07.37.28,1.53,3.29,2.4l.26.07a26.34,26.34,0,0,0,6.84,1.09h.59c.4,0,.8,0,1.24,0a33.82,33.82,0,0,0,3.88-.41l.65-.11.62.38a31.81,31.81,0,0,0,48.37-17.64A31.59,31.59,0,0,0,115,17.15M68.08,37.63a5,5,0,1,1,5-5,5,5,0,0,1-5,5m19.17,0a5,5,0,1,1,5-5,5,5,0,0,1-5,5m19.17,0a5,5,0,1,1,5-5,5,5,0,0,1-5,5"/><path class="cls-3" d="M43.43,123.1l-3.65-7.62c-.79-1.65-1.58-3.3-2.38-4.92-1.27-2.58-1.82-3-1.88-3a3.32,3.32,0,0,0-1-.08,23.36,23.36,0,0,0-2.78.23,40.63,40.63,0,0,1-4.89.29c-2.32,0-4.52-.17-6.76-.36A10.89,10.89,0,0,1,9.81,95.22a8.59,8.59,0,0,0-1-5.11,18.76,18.76,0,0,1-1.37-3.55l-.09-.36-.94-5c-.07-.45-.13-.88-.2-1.29A10.6,10.6,0,0,1,.77,74.79l0-.07c-1.74-4.1.09-8.08.69-9.39.7-1.52,1.46-2.91,2.14-4.13a34.19,34.19,0,0,0,2.22-4.51,8.11,8.11,0,0,0,.55-2.91c-4.5-13.65-1.94-26.13,7.61-37.1C22.88,6.39,38.14,0,53.76,0a4.19,4.19,0,0,1,0,8.37c-13.27,0-26.11,5.28-33.51,13.79-7.6,8.73-9.54,18.23-6,29,1,2.81,0,6.37-.61,8.24l0,.09a41.1,41.1,0,0,1-2.77,5.71C10.26,66.38,9.6,67.57,9,68.82c-.74,1.6-.71,2.3-.61,2.58s.63.75,2.35,1.32l.46.15,1.31.81,1.26,1.62.22.84A37.22,37.22,0,0,1,14.74,80v.09l.83,4.36a10.36,10.36,0,0,0,.71,1.84A16.91,16.91,0,0,1,18.15,96a3.11,3.11,0,0,0,.49,2.38,3.12,3.12,0,0,0,2.16.94c2,.17,4.06.33,6.05.33a31.92,31.92,0,0,0,3.85-.23,30.3,30.3,0,0,1,3.81-.3c5.55,0,7.94,2.73,10.41,7.76q1.17,2.4,2.33,4.82L80.83,94.28v0a28.06,28.06,0,0,1-.52-2.83c-.66-4.78.09-9.67,2.37-15.36q.35-.87.73-1.75a4.18,4.18,0,0,1,7.66,3.36q-.33.75-.63,1.49c-1.74,4.35-2.31,7.78-1.85,11.14a19.59,19.59,0,0,0,.37,2l0,.07,1.39,6.34ZM6.35,53.85v0"/></g></g></g></svg>