<svg xmlns="http://www.w3.org/2000/svg" viewBox="0 0 264.98 265.05"><defs><style>.cls-1{fill:#404148;}</style></defs><title>faq</title><g id="Layer_2" data-name="Layer 2"><g id="Layer_1-2" data-name="Layer 1"><path class="cls-1" d="M124.22,0h16.56a14.61,14.61,0,0,0,2,.41A115.57,115.57,0,0,1,176.3,7.49c47.39,17.94,76.18,51.88,86.55,101.43,1.05,5,1.44,10.18,2.13,15.28v16.56c-.63,4.76-1.08,9.56-1.93,14.29-5.71,31.45-20.55,57.78-45,78.47-24,20.32-51.83,31-83.24,31.32-41,.4-81.93.11-122.89.11Q0,265,0,253c0-39.76.06-79.51,0-119.27,0-22,4.57-42.83,14.94-62.22,20.3-38,51.81-61,93.95-69.42C113.94,1.11,119.11.69,124.22,0ZM82.67,244.27c16,0,32.08.23,48.12,0,45.85-.79,80.23-21.09,101.53-61.79C253.86,141.29,245.9,89.5,213.9,55.86,176.44,16.47,117.35,9,71.83,38.77,39.52,59.87,22,90.36,21,129c-1,37.57-.25,75.19-.34,112.79,0,2.17.83,2.56,2.74,2.55Q53,244.23,82.67,244.27Z"/><path class="cls-1" d="M118.11,152.36c.29-11.65,4.74-21.08,14.09-28.13q3.71-2.8,7.21-5.87a27.25,27.25,0,0,0,3.7-4c6.81-8.94,3.22-18.78-7.79-20.84a34.34,34.34,0,0,0-10.26-.06c-5.6.67-9,4.57-12,9-3.73,5.49-10.42,5.9-15,1.15a9.75,9.75,0,0,1-2.7-8.31,21,21,0,0,1,6.9-13c6.56-6.21,14.61-8.9,23.42-9.64,10.25-.85,20.16.37,29.19,5.68,13.25,7.79,17.78,22.1,11.56,36.16-3.1,7-8,12.6-13.72,17.58-2.79,2.43-5.69,4.76-8.35,7.32a17.47,17.47,0,0,0-5.23,12.29c-.08,1.81-.06,3.62-.21,5.42a9,9,0,0,1-.66,3.52c-2.71,4.94-7.51,4.47-12.07,4.32-3.84-.12-6.18-1.81-7.06-5.29A65.57,65.57,0,0,1,118.11,152.36Z"/><path class="cls-1" d="M114.81,191.5a13.69,13.69,0,0,1,13.7-13.86,13.88,13.88,0,0,1,0,27.75A13.75,13.75,0,0,1,114.81,191.5Z"/></g></g></svg>