<svg xmlns="http://www.w3.org/2000/svg" viewBox="0 0 290.03 290.03"><defs><style>.cls-1{fill:#53b952;}.cls-2{fill:#fff;}</style></defs><title>Asset 8</title><g id="Layer_2" data-name="Layer 2"><g id="i"><circle class="cls-1" cx="145.02" cy="145.02" r="145.02"/><circle class="cls-2" cx="144.74" cy="145.5" r="132.29"/><path class="cls-1" d="M154.58,112.49c1.5.09,3,.08,4.49.29,10.72,1.54,15.44,8,13.36,18.61A54,54,0,0,1,169,141.8c-6.63,15.79-13.42,31.51-20.08,47.29a34.49,34.49,0,0,0-2.45,7.55c-.69,4.11,1.49,5.87,5.24,4a44.91,44.91,0,0,0,9-6.2c3.92-3.35,7.39-7.23,11.37-10.5a5.27,5.27,0,0,1,5.26-1c1.13,1.16,2.26,2.56.14,5.47-.53.72-1.26,1.75-1.92,2.49-13.22,14.78-28.95,25.39-48.76,29.16-.49.09-1,.16-1.48.21-16.39,1.81-23.13-5.67-18.63-21.5a197.63,197.63,0,0,1,9.12-24.22c5.62-13,11.78-25.7,17.42-38.66.91-2.09,2.82-4.76.38-7.3-2.25-1.22-5.61-.2-7.34,1.12-5.4,4.11-10.18,9-15.38,13.41-2.42,2-4.87,6.84-8.47,3.19-3.1-3.14.89-6,3-8.28,12.13-12.88,25.95-22.91,44.17-25.11C151.26,112.74,152.92,112.63,154.58,112.49Z"/><path class="cls-1" d="M166.28,104.43c-8.86,0-15.58-4.47-17.35-11.49-1.92-7.61,1.85-15.35,9.62-19.52a23.08,23.08,0,0,1,17.88-2C188.3,74.82,192,88,183.75,97.17A23.44,23.44,0,0,1,166.28,104.43Z"/></g></g></svg>