<svg xmlns="http://www.w3.org/2000/svg" xmlns:xlink="http://www.w3.org/1999/xlink" viewBox="0 0 170.75 279.63"><defs><style>.cls-1{fill:none;}.cls-2{isolation:isolate;}.cls-3{clip-path:url(#clip-path);}.cls-4{fill:#fff;}.cls-5{fill:#231f20;mix-blend-mode:lighten;}</style><clipPath id="clip-path" transform="translate(0.01 0.1)"><rect class="cls-1" width="170.59" height="279.42"/></clipPath></defs><title>left</title><g class="cls-2"><g id="Layer_1" data-name="Layer 1"><g class="cls-3"><path class="cls-4" d="M7,159.35c-.3-.37-.56-.76-.84-1.14s-.65-.84-.94-1.28-.56-.91-.84-1.37-.49-.79-.71-1.21-.46-.94-.69-1.42-.42-.86-.6-1.3-.35-.94-.52-1.41-.35-.94-.5-1.43-.24-.95-.36-1.42-.27-1-.37-1.5-.17-1.1-.25-1.64-.15-.88-.19-1.33a30.78,30.78,0,0,1,0-6.07c0-.47.13-.92.2-1.38s.14-1.06.24-1.59.25-1,.38-1.56.22-.91.35-1.36.35-1,.53-1.5.3-.89.49-1.33.42-.92.63-1.38.42-.91.65-1.35.51-.87.77-1.3.5-.86.78-1.28.68-.94,1-1.4.49-.69.76-1A29.66,29.66,0,0,1,9.16,118l.14-.15L118.12,9a30.74,30.74,0,1,1,43.47,43.47L75.75,139.71,161.29,227a30.74,30.74,0,0,1-43.47,43.47L9,161.6l-.07-.08c-.69-.7-1.35-1.42-2-2.17" transform="translate(0.01 0.1)"/><path class="cls-5" d="M7,159.35a30.91,30.91,0,0,1-1.78-36.61c2.43-3.65,5.79-6.52,8.8-9.65l37-37,37-37L106.4,20.56l9.24-9.25L118,9l2.43-2.21c.89-.64,1.75-1.31,2.65-1.93s1.87-1.15,2.85-1.63a30.9,30.9,0,0,1,44.76,30.19,30.48,30.48,0,0,1-3.86,12.47A23.63,23.63,0,0,1,165,48.66L164,50A15.86,15.86,0,0,1,163,51.22c-1.44,1.67-3,3.16-4.54,4.73l-9.16,9.33-73.35,74.6v-.33l65.71,67.1,16.43,16.77c2.71,2.8,5.61,5.52,7.67,8.89a30.86,30.86,0,0,1-42.13,42.77,31.13,31.13,0,0,1-4.72-3.52c-1.44-1.33-2.78-2.75-4.18-4.12l-8.29-8.31L73.22,225.9,40,192.68,23.45,176.06l-8.3-8.3L11,163.6l-2.07-2.08-2-2.17,2,2.17L11,163.6l4.15,4.15L23.47,176l16.61,16.59,33.23,33.19L106.53,259l8.31,8.3c1.39,1.37,2.75,2.79,4.18,4.12a31.22,31.22,0,0,0,4.68,3.48,30.59,30.59,0,0,0,46-31.6,30.35,30.35,0,0,0-4.18-10.82c-2-3.34-4.92-6-7.64-8.83L141.38,206.9l-65.8-67-.16-.17.16-.16L149,65l9.17-9.32c1.52-1.56,3.11-3.07,4.53-4.7a15.59,15.59,0,0,0,1.06-1.23l1-1.3a24.46,24.46,0,0,0,1.75-2.74,30.07,30.07,0,0,0,3.82-12.32,30.63,30.63,0,0,0-19.06-31A30.93,30.93,0,0,0,126,3.46c-1,.48-1.88,1.08-2.83,1.62S121.42,6.35,120.54,7l-2.41,2.19-2.32,2.31-9.25,9.24L88.05,39.21l-37,37-37,37c-3,3.13-6.38,6-8.81,9.63A30.87,30.87,0,0,0,7,159.35Z" transform="translate(0.01 0.1)"/></g></g></g></svg>