<svg id="Layer_1" data-name="Layer 1" xmlns="http://www.w3.org/2000/svg" viewBox="0 0 391 371.28"><defs><style>.cls-1{fill:#474747;stroke:#474747;stroke-miterlimit:10;stroke-width:19px;fill-rule:evenodd;}</style></defs><title>Arrow-5</title><path class="cls-1" d="M69,255.14a16.64,16.64,0,0,1,4.69-11.42l158.38-160a15.88,15.88,0,0,1,22.63,0,16.25,16.25,0,0,1,0,22.84L123.61,239H425a16.16,16.16,0,0,1,0,32.32H123.62L254.7,403.7a16.28,16.28,0,0,1,0,22.85,15.89,15.89,0,0,1-22.63,0l-158.38-160A16.6,16.6,0,0,1,69,255.14Z" transform="translate(-59.5 -69.5)"/></svg>