<svg xmlns="http://www.w3.org/2000/svg" xmlns:xlink="http://www.w3.org/1999/xlink" viewBox="0 0 488.83 650"><defs><style>.cls-1{fill:none;}.cls-2{clip-path:url(#clip-path);}</style><clipPath id="clip-path" transform="translate(0)"><rect class="cls-1" width="488.83" height="650"/></clipPath></defs><title>Mentor</title><g id="Layer_2" data-name="Layer 2"><g id="Layer_1-2" data-name="Layer 1"><g class="cls-2"><path d="M111.25,122.12A60.58,60.58,0,1,0,50.67,61.54a60.58,60.58,0,0,0,60.58,60.58" transform="translate(0)"/><path d="M440.31,138.51h0c-1.14-.28-2.3-.52-3.46-.74l-.49-.09q-1.49-.26-3-.46l-.8-.1c-.94-.11-1.88-.19-2.83-.26l-.88-.07c-1.21-.07-2.43-.11-3.65-.11H301.06a63.64,63.64,0,0,0-63.64,63.64V376.15a21.87,21.87,0,0,0,43.74,0V212.44a9.85,9.85,0,0,1,9.85-9.85h4.14V621a29,29,0,0,0,58,0V398.73h19.9V621a29,29,0,0,0,58,0V202.59h4.14a9.85,9.85,0,0,1,9.85,9.85v163.7a21.87,21.87,0,0,0,43.74,0V200.33a63.65,63.65,0,0,0-48.52-61.82" transform="translate(0)"/><path d="M262.64,136.69h-199A63.64,63.64,0,0,0,0,200.33V375.42c0,12,9.42,22.37,21.46,22.59a21.87,21.87,0,0,0,22.28-21.87V212.44a9.85,9.85,0,0,1,9.85-9.85h4.14V620.17c0,15.62,12,29.06,27.61,29.8a29,29,0,0,0,30.41-29V398.73h19.9V620.17c0,15.62,12,29.06,27.61,29.8a29,29,0,0,0,30.41-29V194.4a14,14,0,0,1,14-14h21.76a74.65,74.65,0,0,1,33.21-43.74" transform="translate(0)"/><path d="M394.39,126h30.8a74.43,74.43,0,0,1,13.27,1.21A24.25,24.25,0,0,0,394.39,126" transform="translate(0)"/><path d="M424.66,61.06a61.06,61.06,0,1,0-61.06,61.06,61.06,61.06,0,0,0,61.06-61.06" transform="translate(0)"/></g></g></g></svg>