<svg xmlns="http://www.w3.org/2000/svg" xmlns:xlink="http://www.w3.org/1999/xlink" viewBox="0 0 202.31 290.22"><defs><style>.cls-1{fill:none;}.cls-2{clip-path:url(#clip-path);}.cls-3{fill:#404148;}</style><clipPath id="clip-path"><rect class="cls-1" width="202.3" height="290.22"/></clipPath></defs><title>past</title><g id="Layer_2" data-name="Layer 2"><g id="Layer_1-2" data-name="Layer 1"><g class="cls-2"><path class="cls-3" d="M187.21,32H164.44V48.77h21.09V273.44H16.77V48.77h21.1V32H15.1A15.11,15.11,0,0,0,0,47.09v228a15.11,15.11,0,0,0,15.1,15.1H187.21a15.11,15.11,0,0,0,15.1-15.1v-228A15.11,15.11,0,0,0,187.21,32"/><path class="cls-3" d="M68.15,56.37h66a19.1,19.1,0,0,0,19.1-19.1V30.08a5.32,5.32,0,0,0-5.3-5.3h-22a24.78,24.78,0,1,0-49.56,0h-22a5.32,5.32,0,0,0-5.3,5.3v7.19a19.1,19.1,0,0,0,19.1,19.1m33-41.76A10.17,10.17,0,1,1,91,24.78a10.17,10.17,0,0,1,10.17-10.17"/><polygon class="cls-3" points="41.35 242.12 161.36 242.12 161.36 230.92 40.94 230.92 41.35 242.12"/><polygon class="cls-3" points="161.36 93.79 40.94 93.79 41.35 105 161.36 105 161.36 93.79"/><path class="cls-3" d="M148.88,172.76c-.07.17-.14.34-.2.52a5.4,5.4,0,0,1-5.36,4c-4.25,0-8.51,0-12.77,0H79.63c.36.38.59.63.83.88L99.4,197c2.69,2.68,2.69,5.53,0,8.22-.88.88-1.74,1.77-2.64,2.63a5.15,5.15,0,0,1-7.44,0Q72.15,190.7,55,173.49a12.27,12.27,0,0,1-1.6-2.78v-1.86a8.24,8.24,0,0,1,2.48-3.74q16.5-16.46,33-32.95c2.74-2.74,5.62-2.74,8.37,0l2.3,2.31c2.48,2.5,2.5,5.54,0,8.06Q92.15,150,84.73,157.37c-1.58,1.58-3.18,3.15-5,4.94h62.73c3.73,0,5,.88,6.41,4.29Z"/></g></g></g></svg>