<svg xmlns="http://www.w3.org/2000/svg" xmlns:xlink="http://www.w3.org/1999/xlink" viewBox="0 0 418.43 377.64"><defs><style>.cls-1{fill:none;}.cls-2{clip-path:url(#clip-path);}.cls-3{fill:#545560;}</style><clipPath id="clip-path" transform="translate(0 0)"><rect class="cls-1" width="418.43" height="377.64"/></clipPath></defs><title>Prepshop</title><g id="Layer_2" data-name="Layer 2"><g id="Layer_1-2" data-name="Layer 1"><g class="cls-2"><path class="cls-3" d="M191.38,309.39a34.23,34.23,0,1,0,30.31,30.31,34.26,34.26,0,0,0-30.31-30.31" transform="translate(0 0)"/><path class="cls-3" d="M304.3,309.39a34.23,34.23,0,1,0,30.31,30.31,34.26,34.26,0,0,0-30.31-30.31" transform="translate(0 0)"/><path class="cls-3" d="M405.93,109.15H109.74L92.57,30.49A12.49,12.49,0,0,0,84,21.2L16.14.55a12.49,12.49,0,1,0-7.27,23.9L62.71,40.84a12.49,12.49,0,0,1,8.57,9.29L122.67,285.5a8.32,8.32,0,0,0,8.13,6.54H354.67a12.49,12.49,0,0,0,0-25H144.73a.64.64,0,0,1-.63-.51l-11.57-53H380.16A12.49,12.49,0,0,0,392,204.9l25.77-79.39a12.49,12.49,0,0,0-11.88-16.35" transform="translate(0 0)"/></g></g></g></svg>