<svg xmlns="http://www.w3.org/2000/svg" viewBox="0 0 696.11 719.67"><defs><style>.cls-1{fill:#4d4d4d;}</style></defs><title>Asset 1</title><g id="Layer_2" data-name="Layer 2"><g id="Layer_1-2" data-name="Layer 1"><path class="cls-1" d="M696.11,34.82A34.87,34.87,0,0,0,661.29,0H34.82A34.86,34.86,0,0,0,0,34.82V442a34.86,34.86,0,0,0,34.82,34.82H65.93a17,17,0,0,0,0-34H34.82A.82.82,0,0,1,34,442V34.82a.82.82,0,0,1,.82-.82H661.29a.82.82,0,0,1,.82.82V442a.82.82,0,0,1-.82.82H463.44a17,17,0,0,0,0,34H661.29A34.86,34.86,0,0,0,696.11,442V34.82Z"/><path class="cls-1" d="M179.42,285.53a80.74,80.74,0,1,0,80.74-80.74A80.83,80.83,0,0,0,179.42,285.53Zm127.47,0a46.74,46.74,0,1,1-46.73-46.74A46.79,46.79,0,0,1,306.89,285.53Z"/><path class="cls-1" d="M518.33,183.59c0-.2,0-.38,0-.57a5,5,0,0,0,0-.55c0-.16,0-.32,0-.48s0-.16,0-.24c-2-24.76-21.8-44.46-46.56-47.28l-14.73-26.42a14,14,0,0,0-24.46,13.63l9.91,17.77a52.37,52.37,0,0,0-29.51,42.28c0,.08,0,.16,0,.24s0,.21,0,.31,0,.45,0,.67,0,.43,0,.64a362.64,362.64,0,0,1-42.22,169.87,54.47,54.47,0,0,1-48.18,28.94H204.58A112.9,112.9,0,0,0,91.92,490.64a17.07,17.07,0,0,0-.7,4.82l0,160.25c0,.14,0,.26,0,.4s0,.25,0,.38a53.57,53.57,0,0,0,73.1,47.39,17,17,0,0,0,33.94-1.21V504.52a17,17,0,0,0-34,0v150.2a1.49,1.49,0,0,0,0,.21,19.54,19.54,0,0,1-39,.19l0-155.54a17,17,0,0,0,.61-4.42,78.84,78.84,0,0,1,78.75-78.76h117.8a88.42,88.42,0,0,0,78.2-47,396.84,396.84,0,0,0,46.19-184.87c.89-9.25,9.07-16.46,18.78-16.46s18,7.11,18.78,16.24c-.21,117.87-49,231.83-134,312.78a35,35,0,0,0-10.81,25.1v0l-.6,180.33a17,17,0,0,0,16.94,17.06h.06a17,17,0,0,0,17-16.95l.6-180.32v-.06a.79.79,0,0,1,.26-.59A462.77,462.77,0,0,0,480.7,367.49,465.81,465.81,0,0,0,518.33,183.59Z"/><path class="cls-1" d="M406.15,114.87a14,14,0,0,0-14-14H105.2a14,14,0,1,0,0,28h287A14,14,0,0,0,406.15,114.87Z"/></g></g></svg>