<svg id="Layer_1" data-name="Layer 1" xmlns="http://www.w3.org/2000/svg" viewBox="0 0 247.72 279.65"><defs><style>.cls-1{fill:#404148;}</style></defs><title>Vector Smart Object13</title><path class="cls-1" d="M129.24,5.85A123.86,123.86,0,0,0,41.66,217.29a123.05,123.05,0,0,0,87.58,36.28A124.45,124.45,0,0,0,154.35,251l24.1,33.46a2.45,2.45,0,0,0,2,1h.06a2.43,2.43,0,0,0,1.4-.46l35.76-25.74a2.45,2.45,0,0,0,.56-3.42l-44.79-62.21a2.52,2.52,0,0,0-3.44-.59c-9.41,6.2-24,11.53-40.7,11.53a74.94,74.94,0,1,1,55.62-24.76,3.13,3.13,0,0,0-.24,3.78l26,36.15a2.12,2.12,0,0,0,3.23.33,123.51,123.51,0,0,0,39.21-90.4A123.86,123.86,0,0,0,129.24,5.85" transform="translate(-5.39 -5.85)"/></svg>