<svg xmlns="http://www.w3.org/2000/svg" xmlns:xlink="http://www.w3.org/1999/xlink" viewBox="0 0 364.83 265"><defs><style>.cls-1{isolation:isolate;}.cls-2{fill:url(#linear-gradient);}.cls-3{fill:url(#linear-gradient-2);}.cls-4{fill:#ccc;mix-blend-mode:multiply;}.cls-5{fill:url(#linear-gradient-3);}.cls-6{fill:url(#linear-gradient-4);}.cls-7{fill:#eadca2;}.cls-8{fill:#e0d39d;}.cls-9{fill:#004370;}.cls-10{fill:#fcd197;}.cls-11{fill:#ff6138;}.cls-12{fill:#f2c691;}.cls-13{fill:#1a1a1a;}.cls-14{fill:#aa5e04;}.cls-15{fill:#00467f;}.cls-16{fill:#fdabff;}.cls-17{fill:#004a93;}.cls-18{fill:#8c0000;}.cls-19{fill:url(#linear-gradient-5);}.cls-20{fill:#fff;}.cls-21{fill:url(#linear-gradient-6);}.cls-22{fill:url(#linear-gradient-7);}.cls-23{fill:url(#linear-gradient-8);}</style><linearGradient id="linear-gradient" x1="193.09" y1="259.9" x2="162.82" y2="-8.27" gradientUnits="userSpaceOnUse"><stop offset="0" stop-color="#ef6ac3"/><stop offset="0.12" stop-color="#c378ca"/><stop offset="0.28" stop-color="#9588d1"/><stop offset="0.43" stop-color="#6e94d7"/><stop offset="0.58" stop-color="#509edc"/><stop offset="0.73" stop-color="#3aa5df"/><stop offset="0.87" stop-color="#2daae1"/><stop offset="1" stop-color="#29abe2"/></linearGradient><linearGradient id="linear-gradient-2" x1="39.42" y1="68.6" x2="67.15" y2="156.06" gradientUnits="userSpaceOnUse"><stop offset="0" stop-color="#ef6ac3"/><stop offset="0.06" stop-color="#db70c6"/><stop offset="0.24" stop-color="#a582cf"/><stop offset="0.41" stop-color="#7991d5"/><stop offset="0.58" stop-color="#569cdb"/><stop offset="0.74" stop-color="#3da4df"/><stop offset="0.88" stop-color="#2ea9e1"/><stop offset="1" stop-color="#29abe2"/></linearGradient><linearGradient id="linear-gradient-3" x1="185.2" y1="73.91" x2="395.08" y2="55.3" gradientUnits="userSpaceOnUse"><stop offset="0" stop-color="#ef6ac3"/><stop offset="0.19" stop-color="#cd75c8"/><stop offset="0.62" stop-color="#7991d6"/><stop offset="1" stop-color="#29abe2"/></linearGradient><linearGradient id="linear-gradient-4" x1="203.78" y1="209.02" x2="201.76" y2="267.65" gradientUnits="userSpaceOnUse"><stop offset="0" stop-color="#f0f"/><stop offset="0.04" stop-color="#fe1edd"/><stop offset="0.1" stop-color="#fe40b7"/><stop offset="0.16" stop-color="#fd5f96"/><stop offset="0.23" stop-color="#fc7879"/><stop offset="0.31" stop-color="#fc8d62"/><stop offset="0.4" stop-color="#fb9d51"/><stop offset="0.51" stop-color="#fba844"/><stop offset="0.65" stop-color="#fbae3d"/><stop offset="1" stop-color="#fbb03b"/></linearGradient><linearGradient id="linear-gradient-5" x1="288.65" y1="119.29" x2="284.15" y2="203.29" gradientUnits="userSpaceOnUse"><stop offset="0" stop-color="#dbea50"/><stop offset="1" stop-color="#54f233"/></linearGradient><linearGradient id="linear-gradient-6" x1="87" y1="205.78" x2="84.67" y2="122.45" xlink:href="#linear-gradient-4"/><linearGradient id="linear-gradient-7" x1="295.32" y1="221.8" x2="294.12" y2="162" xlink:href="#linear-gradient-4"/><linearGradient id="linear-gradient-8" x1="106.36" y1="238.56" x2="108.5" y2="159.8" xlink:href="#linear-gradient-5"/></defs><title>Asset 1</title><g class="cls-1"><g id="Layer_2" data-name="Layer 2"><g id="Layer_1-2" data-name="Layer 1"><path class="cls-2" d="M352.78,196.38c-6.71,5.17-17.09,7.56-27,9.47s-20.43,3.67-28.31,8.08-9.53,15.79-3.93,21.51c.3,19-195.46,20.31-195.76,1.31l-.84-5.16c-.24-5.42-.08-5-3.49-10a51.44,51.44,0,0,1-8.14-19C83.18,193.54,73,185,61.42,179.08c-15.38-7.86-33.88-13.32-46.56-23a37.81,37.81,0,0,1-13-17.19c-5-14.1.44-30,16-40.37a121.69,121.69,0,0,1,14.51-7.94C43.75,85,55.53,79.77,61,71.41,73.65,52.12,45.29,27.29,64.27,10,71,3.89,82.13.5,93.69.06c21.45-.8,39.69,6.23,57.37,13,14,5.32,28.47,10.68,44.5,12,21.49,1.76,42.53-3.91,63.21-8.1s44.41-6.78,63,.45c18.4,7.16,26.49,22.26,26.13,36.25,0,1.28-.12,2.55-.26,3.82-1.11,10-5.33,19.69-9.54,29.38-1.12,2.6-2.26,5.18-3.32,7.78-5.55,13.52-9.41,28-3.1,41.37,4.94,10.47,15.68,19.32,22.59,29.3S363.61,188,352.78,196.38Z"/><path class="cls-3" d="M59.36,140.26c-18.81,5.6-41.18,5.28-57.55-1.4-5-14.1.44-30,16-40.37a121.69,121.69,0,0,1,14.51-7.94c19.14,3.33,38.06-1.79,57.58-1.7C137.12,89.06,80.34,134,59.36,140.26Z"/><ellipse class="cls-4" cx="158.71" cy="239.97" rx="22.15" ry="4.2"/><ellipse class="cls-4" cx="228.87" cy="237.39" rx="26.42" ry="3.28"/><path class="cls-5" d="M347.66,57.45c-1.11,10-5.33,19.69-9.54,29.38-8.79-1.74-17.66-3.48-26.84-3.54-24.74-.17-46.14,11.8-70.82,10.32C228,92.86,216.3,88.44,210.1,82.17c-22.16-22.42,28.5-42.49,63.18-42.07,15.81.19,30.68,4.47,44.89,8.67Z"/><path class="cls-6" d="M86.09,227.6c-12.77.53-26,1.14-37.22,4.56-3.07.94-6.16,2.25-6.9,4.16-1.11,2.86,3.78,5.47,8.86,6.16s10.4.12,15.62.24c7.16.17,15.47,2.72,15.06,6.71-.34,3.42-7,5.59-13.08,6s-12.35-.33-18.34.39-11.94,3.77-10.49,7.09q127.4,2.88,255,1.83c14.17-.12,28.34-.27,42.47-.87,7.19-.3,14.72-.79,20.62-3.1s9.36-7.07,5.64-10.52c-3.11-2.88-9.77-3.82-15.78-3.95s-12.25.28-17.85-.93-10.15-4.9-7.5-7.92c1.78-2,5.93-2.93,9.1-4.32s5.32-4.3,2.27-5.76c-3.66-1.76-19.7-1.09-24.69-1.32q-12.76-.61-25.56-1.05-26-.89-52-1.1c-29.21-.24-58.41.1-87.54,1.31Z"/><path class="cls-7" d="M169.32,228l-.25,4.51,3.78,1.8c-.85,1.43-2.48,2.67-8.55,2.8l-.86-9.11Z"/><path class="cls-8" d="M143.38,124.92c-4.87,11-.07,24.26,2,47.8-2,25.12-.81,55.14-.31,55.14l4,.11,8.39-45.71L165.08,136Z"/><path class="cls-7" d="M144,123.73c-4.33,12.14-1.28,20.93,6.27,27.12,5.93,9.42,8.23,30.59,8.23,30.59s2.83,16.29,4.94,46.53h5.88c.34-22.14,3-30.95,2.76-43.69v-8.69c.12-30.8-3.32-41.58-5.57-52.38Z"/><path class="cls-9" d="M145.11,124.92c-10.5,15.93-2.26,28.72-2.2,50.11,0,0,16.89,2.89,30.49-2.32-1.3-22.32,3.68-31.21-5.16-49.5Z"/><path class="cls-10" d="M220.66,85.06l-5.4,20.2c-4.09,8.9-21.73,15-21.73,15l.55,3s18.83-4.22,25.68-11.4a14,14,0,0,0,2.83-4.38c2.58-6.32,5.86-15.22,5.86-15.22C230.55,89.53,222.9,81.25,220.66,85.06Z"/><polygon class="cls-7" points="241.82 225.71 240.51 232.82 246.69 231.13 246.69 225.68 241.82 225.71"/><path class="cls-11" d="M247,229.91l.37,5.56a1.07,1.07,0,0,1-.83,1.14c-2.7.59-10.79,2.24-13.93,1.56a20.06,20.06,0,0,1-4.79-1.51.53.53,0,0,1-.29-.48v-1.06A1.53,1.53,0,0,1,228,234l.46-.47a1.52,1.52,0,0,1,1.06-.46h2a3.61,3.61,0,0,0,1.54-.38l8.35-4.28s.65,2.71,2.25,3.24l1.3-.17a1.38,1.38,0,0,0,1.09-.82l.33-.7Z"/><path d="M237.63,236.26a37.17,37.17,0,0,1-9.76-1.38l.14-.46c.11,0,10.81,3.31,19.15-.45l.19.44A23.54,23.54,0,0,1,237.63,236.26Z"/><polygon class="cls-7" points="222.29 227.73 220.43 234.14 226.26 233.2 226.77 228.19 222.29 227.73"/><path class="cls-11" d="M226.64,232.11l-.18,5.15a1,1,0,0,1-.87,1c-2.54.27-10.13,1-13,0a18.64,18.64,0,0,1-4.27-1.87.48.48,0,0,1-.22-.46l.1-1a1.41,1.41,0,0,1,.5-1l.47-.39a1.36,1.36,0,0,1,1-.31l1.82.18a3.12,3.12,0,0,0,1.45-.2l8.08-3.1s.35,2.56,1.77,3.21l1.21,0a1.31,1.31,0,0,0,1.09-.64l.36-.61Z"/><path d="M217.46,237a34.3,34.3,0,0,1-8.85-2.24l.17-.41c.09,0,9.63,4.13,17.66,1.5l.13.43A21.58,21.58,0,0,1,217.46,237Z"/><path d="M246.51,126.35c5.86,9.42.07,24.25-2,47.79,4.09,12,5.23,36.86,3.11,54.2a.9.9,0,0,1-.88.94h-7.23l-7-45.6-7.7-46.28Z"/><path class="cls-12" d="M226.33,69.18l3.54,10.7-7.26,3a16.87,16.87,0,0,0-2.59-11Z"/><path class="cls-13" d="M245.89,125.15c5.58,9.81,1.27,20.93-6.27,27.13-5.94,9.42-8.23,30.58-8.23,30.58s-.7,24-3.71,46.53h-7.46c-.35-22.13-2.64-30.95-2.42-43.69V177c-.13-30.8,3.32-41.57,5.56-52.38Z"/><path class="cls-14" d="M249.06,129.85c-6.3,5-24.62,3.68-28.38.46,3.1-10,4.3-18.18-.66-26.6-4.59-4.59-4.22-12.1,0-15.42a9.67,9.67,0,0,0,.64-3.23c-.06-4.11,7.93-9,7.93-9l2,0c2.87.77,4.64,1.63,5.42,3.87C244.94,92.9,238.14,113.07,249.06,129.85Z"/><path class="cls-10" d="M227.74,93.82,232,106.41c-1.43,10.13-8.06,25.29-8.19,25.52l3.39,2,9.11-16.39c2.15-3.27,3.09-8.4,2.82-12.3-.47-6.81-.45-14.31-.45-14.31C233.56,76.91,222.17,80.54,227.74,93.82Z"/><path class="cls-10" d="M231.88,60.07c2.5,5.1-.22,13-8,14.86-.52.12-3.64,1-4.13.73-3.81-1.82-6.16-10.56-5.87-14.82.56-8.29-1.12-3.7,4-6.12S229.25,54.69,231.88,60.07Z"/><path class="cls-10" d="M223.78,131.93l-1.5,1.43-2.11.49s-1.1,1-.24,1.29H222L220.4,139l-2,1.21a1.27,1.27,0,0,0-.49,1.63h0a1.25,1.25,0,0,0,1.43.68l2.39-.56a4.3,4.3,0,0,0,2.41-1.54l1.21-1.54a5.33,5.33,0,0,0,1.14-3.3l.42-1.11.59-1.25Z"/><path class="cls-10" d="M161.59,83.81l9.54,18.69c4.26,8.77,20.16,7.82,20.16,7.82l.1,3.09s-16.86,2.9-25.08-2.66a14.12,14.12,0,0,1-3.71-3.68c-3.86-5.62-9-13.62-9-13.62C151,91.15,158.59,80.57,161.59,83.81Z"/><path class="cls-15" d="M158,79l3.32,46.83-.44,6.79c2.44.48,9.43,3.4,13.68-.47l-8.28-21.5a22.92,22.92,0,0,1-1.45-10.14l1.19-14-5.48-6.39Z"/><path class="cls-12" d="M152,70.21l-.33,11.26,7.8.75c-1-2.64-2.41-6.63-1.33-11.2Z"/><path class="cls-16" d="M144,123.73c7.22,3.52,19.52,3.42,22.51-.52-.6-9.37-5.55-15.08-2.51-24.37,4.08-3,5.13-8.92,1.25-12.47-1.86-2.18-3-2.27-4.44-5.33a6,6,0,0,0-1.94-1.91l-6.66-2.36L148.08,78c-2.64,1.36-4.19,2.58-4.47,4.93C140.13,98.78,152.2,108.14,144,123.73Z"/><path class="cls-17" d="M151.43,76.89l5,3.11a15.39,15.39,0,0,1,3.72,9.73l7.11,46.47c-5,1.33-20.72,5.08-26.4-1-1.05-1.12-1.05-4,2.13-11.59,3.59-5.43-1.12-32.76-1.12-32.76C140,81.77,148.34,75.84,151.43,76.89Z"/><path class="cls-10" d="M158,96.1l7.36,10.55c3.33,10.54,21.87,13.64,22.12,13.72l-.94,4.17-18.51-4.24a17.83,17.83,0,0,1-9.73-6c-4.36-5.24-10.17-12.74-10.17-12.74C142.15,87.92,152.89,82.66,158,96.1Z"/><path class="cls-10" d="M145,62.73c-1.1,5.58,3.58,12.55,11.59,12.29a6,6,0,0,0,2.45-.36c3.8-3.17,3.84-4.2,4.59-8.64,1-5.91-.88-11.06-6.45-12.08S146.12,56.86,145,62.73Z"/><path class="cls-10" d="M191.29,110.32l1.44-.73.92-1.43s1-.56,1,.16l-.55,1.54,3.31-.18,1.42-1.16a1,1,0,0,1,1.33.06h0a1,1,0,0,1,.13,1.24l-1,1.62a3.46,3.46,0,0,1-1.77,1.38l-1.46.49a4.22,4.22,0,0,1-2.74,0l-.93,0-1.07.11Z"/><path class="cls-18" d="M161.81,57.69s-5.87,3.91-10.14,4.69c0,0-3.62,5.51,2.65,18.84,0,0-7,2.13-10.24-9.54,0,0-4.23-15.4,3.46-20.17,0,0,6-5.55,13.58-2,0,0,7.17,4.34,4.55,13.52C165.67,63,164.26,63.16,161.81,57.69Z"/><path class="cls-10" d="M197.4,119.18,196,118.1l-1.52-.54s-2.38,1.41-2.38,2.06c0,0,0,.81.72.7l1.61-.92.59.49Z"/><path class="cls-10" d="M187.52,120.37h1.22l2.55-1h.84l1.09,2s-.65.84-1.45.48l-1.4-.48-3.22.57Z"/><polygon class="cls-10" points="186.19 124.54 188.64 125.48 192.18 125.84 195.48 124.63 195.48 122.03 192.83 122.44 189.98 121.46 186.76 122.03 186.19 124.54"/><polygon class="cls-10" points="197.75 122.4 195.87 124.11 192.63 125.11 189.99 126.35 186.92 124.63 190.8 122.17 193.11 120.23 196.32 119.6 197.75 122.4"/><path d="M213.85,60.84s3.68,3.56,12.89-1A4.25,4.25,0,0,0,228,63s3-.94,1.83,2.89a18.91,18.91,0,0,1-1.79,7.17s-8,12.54,5,17.34A4.4,4.4,0,0,0,238.94,87a.77.77,0,0,1,0-.15,10.86,10.86,0,0,0-3.11-9.41c-1.06-1.07-2-2.41-1.74-3.78,0,0,7.69-23-7.48-23.08-.84-1.51-16.13-2.8-16.07,8.56C210.56,59.1,211.79,66.25,213.85,60.84Z"/><path d="M163.75,232.78l-.63,5.9,3.26.51.41-.43,1.75.43s7.22,1.76,9.46,0a2.57,2.57,0,0,0-1.5-3.32l-3.65-1.59s-.72.9-4.14,1a1.76,1.76,0,0,1-.33,0l-2.08-.39a3.44,3.44,0,0,1-2.28-1.59Z"/><path class="cls-8" d="M149,228l-.42,4.18,1.58,3c-1.18,2.31-3.8,1.68-5.69-.27l.4-7.87Z"/><path d="M144.58,231.33l-.74,5.06,1.27,1.58.08-.11.21.39s4.85,5.24,7.14,4.29c0,0,3.36-.44,1.09-3.85l-3.47-3.58s-.52,1.78-3.52,1l-2.17-1.25Z"/><path class="cls-19" d="M274.18,128.36c.5,3.3,3.14,6,3.42,9.36.53,6.33-7.45,10.75-7.46,17.1,0,4.92,4.9,9.44,3.28,14.09-1,2.91-4.24,4.46-5.81,7.11a9.69,9.69,0,0,0-.49,7.83,28.51,28.51,0,0,0,3.89,7.06c2.71,4,5.93,8.32,10.68,9.17,3.27.59,6.65-.68,9.31-2.68a36.54,36.54,0,0,0,6.72-7.31c4-5.27,8.28-11.73,6.24-18-1.42-4.36-4.61-7.22-8.17-10.12s-3.22-6.76-3-11.34c.33-5.45,1.27-9.84.48-15.23-.44-3-2.71-5.09-4.69-7.17-2.56-2.68-3.22-5.13-4.95-8.21C279.91,113.26,273.52,123.92,274.18,128.36Z"/><polygon class="cls-20" points="292.98 186.06 292.85 185.79 283.42 190.5 283.42 183.29 294.12 178.53 294 178.26 283.42 182.97 283.41 175.79 291.05 170.99 290.89 170.74 283.41 175.44 283.4 168.28 289.9 163.45 289.72 163.22 283.4 167.91 283.4 160.91 288.97 156.05 288.77 155.83 283.4 160.52 283.4 157.79 283.1 157.79 283.1 160.52 278.22 155.84 278.01 156.05 283.1 160.93 283.11 167.99 277.28 163.23 277.1 163.46 283.11 168.37 283.12 175.58 276.12 170.75 275.95 171 283.12 175.94 283.12 183.1 283.01 183.15 273.03 178.28 272.9 178.54 283 183.48 283.12 183.42 283.13 190.65 283.07 190.68 274.2 185.81 274.05 186.07 283.06 191.01 283.13 190.98 283.13 198.17 276.29 193.35 276.12 193.59 283.13 198.53 283.15 225.09 283.45 225.09 283.43 198.39 290.92 193.58 290.76 193.33 283.43 198.04 283.42 190.83 292.98 186.06"/><path class="cls-4" d="M294.16,225.08c0,.75-4.8,1.36-10.72,1.37s-10.71-.6-10.71-1.35,4.8-1.37,10.71-1.37S294.16,224.33,294.16,225.08Z"/><path class="cls-4" d="M99.41,236.09c0,1.06-6.08,2-13.61,2.13s-13.65-.64-13.67-1.7,6.08-2,13.61-2.12S99.39,235,99.41,236.09Z"/><path class="cls-21" d="M56.56,174.33c-1.64-3.2-3-7.36-.7-10.13,1.88-2.27,5.5-2.37,8.13-1s4.48,3.8,6.25,6.16A35.65,35.65,0,0,1,62,153.66c-.88-3.8-1-8.19,1.51-11.18s8.36-2.91,9.58.79c0-4.16,0-8.42,1.44-12.32s4.72-7.39,8.84-7.91c4.87-.61,9.44,3.14,11.4,7.63s1.93,9.57,1.86,14.48a18.36,18.36,0,0,1,4.81-6.21c2.12-1.58,5.07-2.29,7.45-1.15,3.94,1.89,4.3,7.35,3.47,11.64a45.84,45.84,0,0,1-10.13,21c1.43-3.66,6.39-5.13,9.92-3.42s5.48,5.88,5.25,9.81a16.83,16.83,0,0,1-5,10.4,50.14,50.14,0,0,1-9.35,7.13c-5.55,3.58-6.11,7.85-12,10.84-5.23,2.65-13.62,1.15-16-3.24a76.22,76.22,0,0,0-8.59-12.56A85.07,85.07,0,0,1,56.56,174.33Z"/><polygon class="cls-20" points="97.03 186.74 96.86 186.41 84.95 192.59 84.81 183.4 98.35 177.13 98.19 176.79 84.8 182.99 84.66 173.85 94.29 167.59 94.09 167.28 84.65 173.41 84.5 164.29 92.68 158.02 92.45 157.72 84.5 163.82 84.36 154.9 91.35 148.61 91.1 148.33 84.35 154.41 84.29 150.93 83.92 150.94 83.97 154.42 77.66 148.55 77.4 148.82 83.98 154.94 84.12 163.93 76.61 157.98 76.38 158.27 84.13 164.41 84.28 173.59 75.28 167.58 75.07 167.89 84.28 174.05 84.43 183.17 84.28 183.23 71.49 177.22 71.33 177.56 84.28 183.65 84.43 183.58 84.58 192.78 84.51 192.82 73.12 186.79 72.94 187.12 84.5 193.24 84.59 193.2 84.73 202.35 75.92 196.34 75.71 196.66 84.74 202.81 85.28 236.63 85.65 236.62 85.11 202.62 94.56 196.36 94.36 196.05 85.1 202.18 84.96 193 97.03 186.74"/><path class="cls-4" d="M302.53,231.29c0,.61-3.53,1.17-7.91,1.24s-7.94-.37-7.95-1,3.53-1.16,7.91-1.23S302.52,230.68,302.53,231.29Z"/><path class="cls-22" d="M277.61,195.37c-.95-1.86-1.73-4.27-.4-5.89,1.09-1.32,3.19-1.37,4.72-.59a11.62,11.62,0,0,1,3.64,3.58,20.62,20.62,0,0,1-4.77-9.12c-.52-2.21-.59-4.76.87-6.5s4.87-1.69,5.58.46a20,20,0,0,1,.84-7.16c.84-2.26,2.74-4.3,5.14-4.6,2.83-.36,5.48,1.82,6.63,4.44s1.12,5.56,1.07,8.41a10.91,10.91,0,0,1,2.8-3.61,4.31,4.31,0,0,1,4.33-.66c2.3,1.09,2.51,4.27,2,6.77a26.73,26.73,0,0,1-5.9,12.22c.83-2.13,3.72-3,5.77-2a6,6,0,0,1,3.06,5.7,9.82,9.82,0,0,1-2.92,6,29.42,29.42,0,0,1-5.44,4.15c-3.23,2.08-3.55,4.56-7,6.3-3,1.54-7.92.67-9.32-1.88a44.31,44.31,0,0,0-5-7.31A49.51,49.51,0,0,1,277.61,195.37Z"/><polygon class="cls-20" points="301.15 202.59 301.05 202.4 294.12 205.99 294.04 200.65 301.91 197 301.82 196.81 294.03 200.41 293.95 195.1 299.55 191.46 299.43 191.27 293.94 194.84 293.86 189.54 298.62 185.89 298.48 185.72 293.86 189.26 293.77 184.08 297.84 180.42 297.7 180.25 293.77 183.79 293.74 181.77 293.52 181.77 293.55 183.79 289.88 180.38 289.73 180.54 293.56 184.1 293.64 189.32 289.27 185.86 289.13 186.03 293.64 189.61 293.73 194.95 288.5 191.45 288.38 191.63 293.73 195.21 293.82 200.51 293.73 200.55 286.29 197.05 286.2 197.25 293.73 200.79 293.82 200.75 293.9 206.1 293.86 206.13 287.24 202.62 287.14 202.81 293.86 206.37 293.91 206.35 293.99 211.67 288.87 208.18 288.75 208.36 294 211.94 294.31 231.6 294.53 231.6 294.21 211.83 299.71 208.19 299.59 208 294.21 211.57 294.13 206.24 301.15 202.59"/><path class="cls-23" d="M98.74,173.06c.34,2.64,2.41,4.85,2.59,7.51.33,5.05-6.1,8.46-6.19,13.52-.07,3.93,3.77,7.6,2.41,11.29-.85,2.3-3.44,3.49-4.73,5.58a7.68,7.68,0,0,0-.5,6.23,22.81,22.81,0,0,0,3,5.69c2.11,3.22,4.61,6.71,8.38,7.46a9.82,9.82,0,0,0,7.46-2,28.88,28.88,0,0,0,5.46-5.74c3.28-4.14,6.77-9.23,5.23-14.29-1.07-3.5-3.57-5.83-6.36-8.18s-2.48-5.44-2.2-9.09c.34-4.33,1.15-7.82.6-12.13-.31-2.39-2.09-4.09-3.64-5.78-2-2.17-2.49-4.13-3.83-6.62C103.52,161.11,98.27,169.51,98.74,173.06Z"/><polygon class="cls-20" points="112.9 219.32 112.8 219.11 105.22 222.73 105.32 216.98 113.92 213.33 113.83 213.12 105.32 216.72 105.42 211 111.58 207.28 111.46 207.08 105.42 210.72 105.52 205.01 110.77 201.26 110.63 201.06 105.53 204.72 105.62 199.14 110.13 195.34 109.98 195.16 105.63 198.82 105.66 196.65 105.43 196.65 105.39 198.82 101.56 195.02 101.4 195.19 105.39 199.15 105.29 204.78 100.71 200.9 100.56 201.08 105.28 205.08 105.19 210.83 99.68 206.88 99.55 207.07 105.18 211.12 105.08 216.82 104.99 216.86 97.11 212.83 97 213.04 104.98 217.12 105.08 217.08 104.98 222.84 104.94 222.86 97.93 218.85 97.82 219.06 104.93 223.13 104.98 223.1 104.88 228.83 99.49 224.89 99.35 225.08 104.88 229.12 104.52 250.29 104.75 250.29 105.11 229.01 111.16 225.29 111.03 225.09 105.12 228.73 105.22 222.99 112.9 219.32"/><path class="cls-4" d="M113.29,250.44c0,.6-3.84,1-8.56.94s-8.53-.63-8.52-1.23,3.84-1,8.56-.94S113.3,249.84,113.29,250.44Z"/></g></g></g></svg>