<svg xmlns="http://www.w3.org/2000/svg" xmlns:xlink="http://www.w3.org/1999/xlink" viewBox="0 0 170.75 279.63"><defs><style>.cls-1{fill:none;}.cls-2{isolation:isolate;}.cls-3{clip-path:url(#clip-path);}.cls-4{fill:#fff;}.cls-5{fill:#231f20;mix-blend-mode:lighten;}</style><clipPath id="clip-path" transform="translate(0.15 0.1)"><rect class="cls-1" width="170.59" height="279.42"/></clipPath></defs><title>right</title><g class="cls-2"><g id="Layer_1" data-name="Layer 1"><g class="cls-3"><path class="cls-4" d="M163.63,159.35c.3-.37.56-.76.85-1.14s.64-.84.94-1.28.56-.91.83-1.37.49-.79.71-1.21.47-.94.69-1.42.42-.86.61-1.3.34-.94.51-1.41.35-.94.5-1.43.25-.95.37-1.42.26-1,.36-1.5.17-1.1.25-1.64.15-.88.19-1.33a30.78,30.78,0,0,0,0-6.07c0-.47-.13-.92-.19-1.38s-.14-1.06-.25-1.59-.25-1-.38-1.56-.21-.91-.35-1.36-.34-1-.52-1.5-.31-.89-.49-1.33-.42-.92-.64-1.38-.41-.91-.65-1.35-.51-.87-.77-1.3-.49-.86-.78-1.28-.68-.94-1-1.4-.48-.69-.75-1a28.05,28.05,0,0,0-2.21-2.41l-.13-.15L52.47,9A30.74,30.74,0,0,0,9,52.47l85.85,87.24L9.3,227a30.74,30.74,0,0,0,43.47,43.47L161.6,161.6a.27.27,0,0,1,.07-.08c.68-.7,1.34-1.42,2-2.17" transform="translate(0.15 0.1)"/><path class="cls-5" d="M163.63,159.35a30.82,30.82,0,0,0,1.74-36.58c-2.42-3.64-5.78-6.5-8.81-9.63l-37-37-37-37L64,20.73l-9.25-9.24L52.47,9.18,50.05,7c-.88-.64-1.74-1.3-2.63-1.91S45.57,3.94,44.6,3.46A31,31,0,0,0,19.36,2.34,30.68,30.68,0,0,0,.3,33.39,30.08,30.08,0,0,0,4.13,45.71a23.11,23.11,0,0,0,1.75,2.74l1,1.3A13.86,13.86,0,0,0,7.91,51c1.41,1.63,3,3.14,4.52,4.7L21.61,65,95,139.55l.17.16-.17.17-65.79,67L12.77,223.65c-2.73,2.81-5.6,5.49-7.64,8.83A30.37,30.37,0,0,0,.94,243.3a30.61,30.61,0,0,0,46,31.6,31.3,31.3,0,0,0,4.69-3.48c1.43-1.33,2.78-2.75,4.18-4.12l8.3-8.3,33.23-33.18,33.22-33.19L147.13,176l8.3-8.29,4.16-4.15,2.07-2.08,2-2.17-2,2.17-2.07,2.08-4.15,4.16-8.29,8.3-16.59,16.62L97.37,225.9,64.19,259.13l-8.3,8.31c-1.39,1.37-2.74,2.79-4.18,4.12A30.56,30.56,0,0,1,47,275.08,30.85,30.85,0,0,1,.65,243.25a30.62,30.62,0,0,1,4.21-10.94c2.06-3.37,5-6.09,7.68-8.89L29,206.65l65.72-67.1v.33L21.33,65.28,12.16,56c-1.51-1.57-3.09-3.06-4.53-4.73A16,16,0,0,1,6.55,50l-1-1.32a25,25,0,0,1-1.77-2.77A30.47,30.47,0,0,1,0,33.42,30.86,30.86,0,0,1,44.72,3.23c1,.48,1.89,1.09,2.84,1.63s1.77,1.29,2.65,1.93L52.64,9,55,11.31l9.24,9.25L82.68,39.07l37,37,37,37c3,3.13,6.38,6,8.8,9.65a30.87,30.87,0,0,1-1.78,36.61Z" transform="translate(0.15 0.1)"/></g></g></g></svg>