<svg xmlns="http://www.w3.org/2000/svg" xmlns:xlink="http://www.w3.org/1999/xlink" viewBox="0 0 683.65 250.02"><defs><style>.cls-1{fill:none;}.cls-2{clip-path:url(#clip-path);}.cls-3{fill:#231f20;}.cls-4{fill:#00aeef;}</style><clipPath id="clip-path"><rect class="cls-1" width="683.65" height="250.02"/></clipPath></defs><title>Asset 1</title><g id="Layer_2" data-name="Layer 2"><g id="Layer_1-2" data-name="Layer 1"><g class="cls-2"><path class="cls-3" d="M85.38,107.29H52.87L52.4,76.76H43.21l-10.7,30.53H0L34.05,9.76h70.11q6.93,0,9.6,4.17T113.94,25L101.29,61.49a23,23,0,0,1-6.51,9.83,21.35,21.35,0,0,1-10,5Zm-23-85.38L47.43,64.6H67.64L82.56,21.91Z"/><path class="cls-3" d="M182.91,107.29H150.4l10.7-30.53H140.74L130,107.29H97.53L126.23,25a23.3,23.3,0,0,1,8.17-11.09,20.53,20.53,0,0,1,12.45-4.17h54.84q6.93,0,9.68,4.17T211.61,25Zm-23-85.38L145,64.6h20.35l14.92-42.69Z"/><path class="cls-3" d="M296.33,61.63a23.21,23.21,0,0,1-8.17,11.1,20.5,20.5,0,0,1-12.44,4.17l-37.44-.14-10.7,30.53H195.06L229.11,9.76h70.11q6.93,0,9.68,4.17T309.14,25ZM257.41,21.91,242.49,64.6h20.36l14.91-42.69Z"/><path class="cls-3" d="M453.31,92a23.28,23.28,0,0,1-8.17,11.1,20.55,20.55,0,0,1-12.45,4.17H362.58L396.63,9.76h70.11q6.93,0,9.68,4.17T476.66,25ZM424.93,21.91,399.31,95.13h20.35l25.62-73.22Z"/><path class="cls-3" d="M99.48,232.53H67L66.5,202H57.31l-10.7,30.53H14.1L48.15,135h70.11q6.93,0,9.61,4.17t.17,11.09l-12.65,36.47a22.9,22.9,0,0,1-6.51,9.83,21.35,21.35,0,0,1-9.95,5Zm-23-85.38L61.53,189.84H81.74l14.92-42.69Z"/><path class="cls-3" d="M126.9,232.53q-6.93,0-9.67-4.17t-.25-11.1l23.35-67a23.3,23.3,0,0,1,8.17-11.09A20.55,20.55,0,0,1,161,135h53.86l-4.22,12.15H174l-10.7,30.53h28.41l-4.22,12.16H159.06l-10.7,30.53H185l-4.21,12.16Z"/><polygon class="cls-3" points="247.62 232.53 215.25 232.53 222.86 135 255.37 135 249.42 208.07 294.81 135 308.1 135 247.62 232.53"/><path class="cls-3" d="M411.9,177.68c4.61,0,7.84,1.4,9.67,4.17s1.91,6.48.24,11.1l-8.43,24.31a23.28,23.28,0,0,1-8.17,11.1,20.53,20.53,0,0,1-12.45,4.17H337.92q-6.93,0-9.61-4.17t-.31-11.1l4.49-13.14H365l-5.63,16.25h20.35l10.7-30.53h-37.6q-6.91,0-9.67-4.17t-.24-11.1l8.43-24.31a23.23,23.23,0,0,1,8.17-11.09A20.51,20.51,0,0,1,372,135h54.84q6.93,0,9.68,4.12t.26,11l-4.5,13.15H399.74l5.61-16.12H385l-10.71,30.53Z"/><polygon class="cls-3" points="452.55 232.53 420.04 232.53 454.09 135 486.6 135 452.55 232.53"/><path class="cls-3" d="M555.44,217.26a23.34,23.34,0,0,1-8.17,11.1,20.55,20.55,0,0,1-12.45,4.17H480q-6.92,0-9.67-4.17t-.24-11.1l23.35-67a23.23,23.23,0,0,1,8.17-11.09A20.5,20.5,0,0,1,514,135h54.85q6.92,0,9.67,4.17t.24,11.09Zm-28.39-70.11-25.61,73.22h20.35l25.62-73.22Z"/><polygon class="cls-3" points="649.6 232.53 617.09 232.53 616.17 171.32 594.75 232.53 562.24 232.53 596.29 135 628.8 135 629.69 196.34 651.13 135 683.65 135 649.6 232.53"/><polygon class="cls-4" points="341.02 120.74 301.51 120.74 326.91 0 386.25 0 341.02 120.74"/><polygon class="cls-4" points="287.3 250.02 323.95 107.25 357.64 107.25 287.3 250.02"/></g></g></g></svg>