<svg xmlns="http://www.w3.org/2000/svg" xmlns:xlink="http://www.w3.org/1999/xlink" viewBox="0 0 325.15 279.58"><defs><style>.cls-1{fill:none;}.cls-2{clip-path:url(#clip-path);}.cls-3{fill:#404148;}</style><clipPath id="clip-path" transform="translate(0 0)"><rect class="cls-1" width="325.15" height="279.58"/></clipPath></defs><title>Statistics</title><g id="Layer_2" data-name="Layer 2"><g id="Layer_1-2" data-name="Layer 1"><g class="cls-2"><path class="cls-3" d="M52.65,278.64H26a11.12,11.12,0,0,1-11.11-11.11V193.6A11.12,11.12,0,0,1,26,182.49H52.65A11.12,11.12,0,0,1,63.76,193.6v73.94a11.12,11.12,0,0,1-11.11,11.11" transform="translate(0 0)"/><path class="cls-3" d="M217.61,278.64H190.95a11.12,11.12,0,0,1-11.11-11.11V171.27a11.12,11.12,0,0,1,11.11-11.11h26.66a11.12,11.12,0,0,1,11.11,11.11v96.26a11.12,11.12,0,0,1-11.11,11.11" transform="translate(0 0)"/><path class="cls-3" d="M135.13,278.64H108.47a11.12,11.12,0,0,1-11.11-11.11V126.62a11.12,11.12,0,0,1,11.11-11.1h26.66a11.12,11.12,0,0,1,11.11,11.1V267.54a11.12,11.12,0,0,1-11.11,11.11" transform="translate(0 0)"/><path class="cls-3" d="M300.09,278.64H273.43a11.12,11.12,0,0,1-11.11-11.11V89.41a11.12,11.12,0,0,1,11.11-11.1h26.66a11.12,11.12,0,0,1,11.11,11.1V267.54a11.12,11.12,0,0,1-11.11,11.11" transform="translate(0 0)"/><path class="cls-3" d="M319.32,279.58H5.83a5.83,5.83,0,1,1,0-11.66H319.32a5.83,5.83,0,0,1,0,11.66" transform="translate(0 0)"/><path class="cls-3" d="M37.82,159.46a28.8,28.8,0,1,1,28.8-28.8,28.83,28.83,0,0,1-28.8,28.8" transform="translate(0 0)"/><path class="cls-3" d="M202,141.32a28.8,28.8,0,1,1,28.8-28.8,28.83,28.83,0,0,1-28.8,28.8" transform="translate(0 0)"/><path class="cls-3" d="M282.92,57.6a28.8,28.8,0,1,1,28.8-28.8,28.83,28.83,0,0,1-28.8,28.8" transform="translate(0 0)"/><path class="cls-3" d="M118.28,93.88a28.8,28.8,0,1,1,28.8-28.8,28.83,28.83,0,0,1-28.8,28.8" transform="translate(0 0)"/><rect class="cls-3" x="46.81" y="91.33" width="60.67" height="11.67" transform="translate(-44.77 74.14) rotate(-40.86)"/><rect class="cls-3" x="155.65" y="57.47" width="11.67" height="52.11" transform="translate(-4.06 158.68) rotate(-51.77)"/><rect class="cls-3" x="209.23" y="65.91" width="70.71" height="11.67" transform="translate(37.79 220.76) rotate(-52.12)"/></g></g></g></svg>