<svg xmlns="http://www.w3.org/2000/svg" xmlns:xlink="http://www.w3.org/1999/xlink" viewBox="0 0 404.21 374.68"><defs><style>.cls-1{fill:none;}.cls-2{clip-path:url(#clip-path);}.cls-3{fill:#231f20;}</style><clipPath id="clip-path"><rect class="cls-1" width="404.21" height="374.68"/></clipPath></defs><title>student support</title><g id="Layer_2" data-name="Layer 2"><g id="Layer_1-2" data-name="Layer 1"><g class="cls-2"><path class="cls-3" d="M370.68,107.69H342.74C323.61,45.5,268,.33,202.47,0c-.2,0-.41,0-.61,0h0c-.23,0-.46,0-.68,0C135.64.35,80.06,45.51,60.93,107.69H33.53C15,107.69,0,120.42,0,136.07v73.49c0,15.65,15,28.38,33.53,28.38H58.28a158.2,158.2,0,0,0,29.25,60.91c20.41,26,48.46,44.4,79.44,52.26a26.53,26.53,0,0,0,26.33,23.57h16.55a26.5,26.5,0,0,0,0-53H193.29a26.53,26.53,0,0,0-24.12,15.55C110.11,321.65,67.83,265,67.83,200.26v-45A148.5,148.5,0,0,1,71,124.68c56-16.61,96.14-40.84,119.27-72.08a108.37,108.37,0,0,0,11.58-19.46A108.37,108.37,0,0,0,213.41,52.6c23.13,31.24,63.25,55.48,119.27,72.08,2.07,9.84,3.36,32.4,3.7,33.23v80h34.29c18.49,0,33.53-12.73,33.53-28.38V136.07c0-15.65-15-28.38-33.53-28.38m-177.39,228h16.55a12.5,12.5,0,0,1,0,25H193.29a12.5,12.5,0,0,1,0-25M53.83,223.95H33.53c-10.59,0-19.53-6.59-19.53-14.38V136.07c0-7.8,8.95-14.38,19.53-14.38H53.83ZM178.25,45.28C164.08,64,134.84,89.59,75.31,108.7,92.74,56.22,138.79,17.8,193.65,14.3c-1.67,6.94-5.7,18.18-15.4,31m47.17,0c-9.71-12.81-13.74-24-15.41-31,54.86,3.5,100.92,41.93,118.35,94.41C268.83,89.59,239.59,64,225.42,45.28M390.21,209.56c0,7.8-8.95,14.38-19.53,14.38H350.39V121.69h20.29c10.59,0,19.53,6.59,19.53,14.38Z"/><path class="cls-3" d="M170,132a17.63,17.63,0,1,0-17.63,17.63A17.63,17.63,0,0,0,170,132"/><path class="cls-3" d="M251.35,114.39A17.63,17.63,0,1,0,269,132a17.63,17.63,0,0,0-17.63-17.63"/><path class="cls-3" d="M251.51,220.91a7,7,0,0,0-7,7c0,7-16.52,17.15-42.4,17.15s-42.4-10.16-42.4-17.15a7,7,0,1,0-14,0c0,17.76,24.25,31.15,56.4,31.15s56.4-13.39,56.4-31.15a7,7,0,0,0-7-7"/></g></g></g></svg>