<svg xmlns="http://www.w3.org/2000/svg" viewBox="0 0 326 313.81"><defs><style>.cls-1{fill:#fff;}</style></defs><title>Asset 1</title><g id="Layer_2" data-name="Layer 2"><g id="Layer_1-2" data-name="Layer 1"><path d="M326,125.58V313.81H0q0-94,0-188.22,13.3-9.91,26.59-19.82c6.61-4.94,13.39-6.86,21.21.46,0-23.31.9-45.22-.28-67.05C46.56,21.42,52.36,8,70.87,0H255.13c18,7.75,24.3,20.36,23.62,38-1.15,29.89-.34,59.83-.28,89.75,0,2.85.51,5.7.91,9.88l20.46-12.23c-6-3.41-11.61-5.26-14.78-8.82-2.6-2.91-2.3-7.86-3.29-11.9,4.27-.67,10-3.25,12.54-1.7C305.39,109.86,315.53,117.94,326,125.58ZM163.86,16.11c-27.17,0-54.33-.12-81.49.05-13,.08-17,3.66-17.09,15.1-.15,37-.24,74,.24,110.92,0,3.61,3.28,8.42,6.71,10.56C87.32,162.16,103.72,170,118.28,180c10.89,7.46,17.7,7.22,27-2,12-11.9,22.41-11.26,35.56-.44,2,1.66,4.32,3.15,5.94,5.07,4.13,4.89,8,5.09,13.79,1.5C218.36,173.17,236.74,163,254.39,152c3.43-2.15,6.55-7,6.6-10.69.48-36.27.36-72.55.26-108.83,0-12.55-4.17-16.26-18.25-16.33C216.62,16,190.24,16.11,163.86,16.11ZM163.11,185,32.87,296.55H292.55ZM307.26,141l-100.4,58.9,100.4,86.32Zm-287.9.67V285.18l100-85.34Zm6.3-15.38,21.43,12V113Z"/><path class="cls-1" d="M70.87,0C52.36,8,46.56,21.42,47.52,39.17c1.18,21.83.28,43.74.28,67.05-7.83-7.32-14.6-5.4-21.21-.46Q13.31,115.68,0,125.58,0,62.79,0,0Z"/><path d="M205.3,90.52c-.16-1.25-1.4-3.78-.48-5.29,1.42-2.34,4.31-4,6.58-5.91,2,2.15,5.31,4.07,5.87,6.49,5.43,23.34-11.39,47.59-38.11,55.6-23.81,7.14-50.07-1.32-64.73-20.84C101,102.68,103,77,119.17,60.35c16.39-16.89,44.26-22.28,66.43-12.17,4.11,1.87,10.12,7.56,9.3,9.56-3,7.4-9.33,3-14.53,1-18.69-7-36.13-4.19-49.75,8.17C118.3,78.06,114.87,94.52,122,108.4c7.82,15.3,24,24.32,42.12,23.53C187.69,130.89,206.18,112.71,205.3,90.52Z"/><path d="M162.44,101.72C177.35,86.34,191.37,71.48,206,57.14c2.7-2.64,9.8-5.52,11.77-4.31,6.79,4.16,1,8.52-2.3,12-15.11,16-30.57,31.69-45.69,47.66-5.65,6-10.39,6.67-15.7-.25-6-7.75-12.78-15-18.24-23-1.65-2.41,0-6.58.08-9.94,3.49,1.17,8,1.5,10.27,3.68C151.93,88.51,156.64,94.87,162.44,101.72Z"/></g></g></svg>