<svg xmlns="http://www.w3.org/2000/svg" xmlns:xlink="http://www.w3.org/1999/xlink" viewBox="0 0 59 44"><defs><style>.cls-1,.cls-3,.cls-4,.cls-6{fill:none;}.cls-2{clip-path:url(#clip-path);}.cls-3,.cls-4{stroke:#67809f;}.cls-3{stroke-linejoin:bevel;}.cls-5{fill:#67809f;}.cls-6{stroke:#f9690e;}</style><clipPath id="clip-path" transform="translate(0)"><rect class="cls-1" width="59" height="44"/></clipPath></defs><title>Terms</title><g id="Layer_2" data-name="Layer 2"><g id="Layer_1-2" data-name="Layer 1"><g class="cls-2"><polygon class="cls-3" points="22.5 8.5 14.5 8.5 22.5 0.5 22.5 8.5"/><polyline class="cls-4" points="44.5 3.5 45.5 3.5 45.5 43.5 17.5 43.5 17.5 42.5"/></g><polygon class="cls-5" points="22.29 0 14.14 8.15 14.85 8.85 22.7 1 41.99 1 41.99 30 43 30 43 0 22.29 0"/><polygon class="cls-5" points="42 35 42 40 15 40 15 19 14 19 14 41 43 41 43 35 42 35"/><rect class="cls-5" x="14" y="10.5" width="1" height="3.5"/><line class="cls-6" x1="20.5" y1="32.5" x2="24.7" y2="32.5"/><line class="cls-6" x1="26.7" y1="32.5" x2="54.5" y2="32.5"/><line class="cls-4" x1="36.5" y1="24.5" x2="32.3" y2="24.5"/><line class="cls-4" x1="30.3" y1="24.5" x2="20.5" y2="24.5"/><line class="cls-6" x1="20.5" y1="28.58" x2="36.5" y2="28.58"/><line class="cls-4" x1="4.5" y1="16.5" x2="24.7" y2="16.5"/><line class="cls-4" x1="26.7" y1="16.5" x2="36.5" y2="16.5"/><line class="cls-4" x1="36.5" y1="20.42" x2="20.5" y2="20.42"/><g class="cls-2"><circle class="cls-4" cx="2.5" cy="16.5" r="2"/><circle class="cls-6" cx="56.5" cy="32.5" r="2"/></g></g></g></svg>