<svg xmlns="http://www.w3.org/2000/svg" xmlns:xlink="http://www.w3.org/1999/xlink" viewBox="0 0 259.19 320"><defs><style>.cls-1{fill:none;}.cls-2{clip-path:url(#clip-path);}.cls-3{fill:#404148;}</style><clipPath id="clip-path" transform="translate(0 0)"><rect class="cls-1" width="259.19" height="320"/></clipPath></defs><title>t&amp;apos;d</title><g id="Layer_2" data-name="Layer 2"><g id="Layer_1-2" data-name="Layer 1"><g class="cls-2"><path class="cls-3" d="M199.84,192.2a29.34,29.34,0,1,0,29.34,29.34,29.34,29.34,0,0,0-29.34-29.34" transform="translate(0 0)"/><path class="cls-3" d="M199.84,259a125.55,125.55,0,0,0-26.3,2.38l.78.42c13.59,7.64,20.48,20.33,20.48,37.71v10.05A16.26,16.26,0,0,1,191.07,320h57.74a10.41,10.41,0,0,0,10.38-10.38V299.57c0-32.65-26.71-40.52-59.35-40.52" transform="translate(0 0)"/><path class="cls-3" d="M59.35,192.2A29.34,29.34,0,1,0,88.7,221.54,29.34,29.34,0,0,0,59.35,192.2" transform="translate(0 0)"/><path class="cls-3" d="M64.14,299.57c0-17.38,6.89-30.07,20.48-37.71l.85-.47A126.3,126.3,0,0,0,59.36,259C26.71,259,0,266.92,0,299.57v10.06A10.41,10.41,0,0,0,10.38,320H67.86a16.27,16.27,0,0,1-3.73-10.38Z" transform="translate(0 0)"/><path class="cls-3" d="M129.47,192.2a29.34,29.34,0,1,0,29.34,29.34,29.34,29.34,0,0,0-29.34-29.34" transform="translate(0 0)"/><path class="cls-3" d="M129.47,259h0c-32.64,0-59.35,7.87-59.35,40.52v10.05A10.41,10.41,0,0,0,80.49,320h98a10.41,10.41,0,0,0,10.38-10.38V299.57c0-32.65-26.71-40.52-59.35-40.52" transform="translate(0 0)"/><path class="cls-3" d="M82,30.69a111.32,111.32,0,0,1,14.82-.09c23.29,1.42,44.89,10,60.84,24.21C174.6,69.93,183.27,89.53,182,110a62.85,62.85,0,0,1-7.27,25.75,66.44,66.44,0,0,1-5.37,8.52,72.78,72.78,0,0,1-9.3,10.35l.11.17-.1.09a120.7,120.7,0,0,0,17.6-.78h0l29.16,27.64a1.43,1.43,0,0,0,2.41-1l.67-35.4a97.33,97.33,0,0,0,15.62-8.77c19.46-13.48,30.87-32.36,32.14-53.18s-7.77-41-25.45-56.69C214.85,11.2,191.08,1.8,165.34.23S114.85,5.11,95.7,18.37A84.79,84.79,0,0,0,81.65,30.51l.19,0Z" transform="translate(0 0)"/><path class="cls-3" d="M34.58,145.66a78.15,78.15,0,0,0,11.19,8.27l-2.89,28a1.76,1.76,0,0,0,2.79,1.59l25.84-19.11a98.41,98.41,0,0,0,17,2.51c20.13,1.23,39.49-3.64,54.73-13.71.46-.29.9-.6,1.35-.91a69.87,69.87,0,0,0,7.7-6.16,61,61,0,0,0,7.87-8.76,54.57,54.57,0,0,0,4.46-7.06,51.5,51.5,0,0,0,6-21.08c1-16.87-6.28-33.17-20.58-45.9-14-12.48-33.16-20.05-53.89-21.31a99.59,99.59,0,0,0-13.38.08A95.38,95.38,0,0,0,72,43.57,83.63,83.63,0,0,0,40,56.7C24.26,67.6,15,82.89,14,99.76s6.28,33.16,20.58,45.9m-12.4-45.4C23.54,78,42.15,59.84,67.54,53a82.37,82.37,0,0,1,9.83-2,88.85,88.85,0,0,1,18.21-.74c38.65,2.35,68.61,28.61,66.79,58.54-.87,14.26-8.8,26.81-21,35.79a67.64,67.64,0,0,1-10,6.07A84.12,84.12,0,0,1,89,158.8c-2.9-.18-5.75-.49-8.54-.93a87.62,87.62,0,0,1-9.66-2.07,2,2,0,0,0-1.76.32l-7.31,5.41-9.17,6.78,1-10.16.76-7.35a2.06,2.06,0,0,0-1.07-2,74.42,74.42,0,0,1-6.54-4c-15.9-10.95-25.59-27.11-24.53-44.51" transform="translate(0 0)"/></g></g></g></svg>